<svg width="72" height="69" viewBox="0 0 72 69" fill="none" xmlns="http://www.w3.org/2000/svg">
<g filter="url(#filter0_d_883_2348)">
<path fill-rule="evenodd" clip-rule="evenodd" d="M17.9601 47.856H29.9784C30.738 47.856 31.3348 48.4799 31.3348 49.2124V61.2307C31.3348 61.9903 30.7109 62.5871 29.9784 62.5871H17.9601C17.2005 62.5871 16.6037 61.9632 16.6037 61.2307V49.2124C16.6037 48.4528 17.2276 47.856 17.9601 47.856ZM20.022 54.6654H27.9437V55.7777H20.022V54.6654Z" fill="#020202"/>
<path fill-rule="evenodd" clip-rule="evenodd" d="M17.9601 31.2258H29.9784C30.738 31.2258 31.3348 31.8497 31.3348 32.5822V44.6005C31.3348 45.3601 30.7109 45.9569 29.9784 45.9569H17.9601C17.2005 45.9569 16.6037 45.333 16.6037 44.6005V32.5822C16.6037 31.8226 17.2276 31.2258 17.9601 31.2258ZM23.4945 40.1241H24.444V41.0737H23.4945V40.1241ZM23.4945 36.1361H24.444V37.0857H23.4945V36.1361ZM20.022 38.0623H27.9437V39.1746H20.022V38.0623Z" fill="#020202"/>
<path fill-rule="evenodd" clip-rule="evenodd" d="M35.5675 31.2258H47.5857C48.3453 31.2258 48.9422 31.8497 48.9422 32.5822V44.6005C48.9422 45.3601 48.3182 45.9569 47.5857 45.9569H35.5675C34.8078 45.9569 34.211 45.333 34.211 44.6005V32.5822C34.211 31.8226 34.835 31.2258 35.5675 31.2258ZM38.3618 41.3178L40.7763 38.9033L38.3618 36.4888L39.1485 35.7021L41.563 38.1166L43.9775 35.7021L44.7643 36.4888L42.3498 38.9033L44.7643 41.3178L43.9775 42.1046L41.563 39.6901L39.1485 42.1046L38.3618 41.3178Z" fill="#020202"/>
<path fill-rule="evenodd" clip-rule="evenodd" d="M35.5931 47.9102H47.6113C48.3709 47.9102 48.9678 48.5342 48.9678 49.2667V61.2849C48.9678 62.0445 48.3438 62.6414 47.6113 62.6414H35.5931C34.8335 62.6414 34.2366 62.0174 34.2366 61.2849V49.2667C34.2366 48.5071 34.8606 47.9102 35.5931 47.9102ZM37.6549 54.7197H41.0461V51.3285H42.1583V54.7197H45.5495V55.832H42.1583V59.2231H41.0461V55.832H37.6549V54.7197Z" fill="#FFB329"/>
<path fill-rule="evenodd" clip-rule="evenodd" d="M0 30.6832C32.7721 0 32.7721 0 32.7721 0L65.5442 30.6832V45.0888L32.7721 14.4056L0 45.0888V30.6832Z" fill="#FFB329"/>
<path fill-rule="evenodd" clip-rule="evenodd" d="M0 24.3078L25.9627 0H14.5413L0 13.6189V24.3078Z" fill="#FFB329"/>
<path fill-rule="evenodd" clip-rule="evenodd" d="M0 8.43719V0H9.03403L0 8.43719Z" fill="#FFB329"/>
<path d="M53.5555 8.89839H48.8893V22.1375H53.5555V8.89839Z" fill="#FFB329"/>
</g>
<defs>
<filter id="filter0_d_883_2348" x="0" y="0" width="71.5442" height="68.6414" filterUnits="userSpaceOnUse" color-interpolation-filters="sRGB">
<feFlood flood-opacity="0" result="BackgroundImageFix"/>
<feColorMatrix in="SourceAlpha" type="matrix" values="0 0 0 0 0 0 0 0 0 0 0 0 0 0 0 0 0 0 127 0" result="hardAlpha"/>
<feOffset dx="4" dy="4"/>
<feGaussianBlur stdDeviation="1"/>
<feComposite in2="hardAlpha" operator="out"/>
<feColorMatrix type="matrix" values="0 0 0 0 0 0 0 0 0 0 0 0 0 0 0 0 0 0 0.15 0"/>
<feBlend mode="normal" in2="BackgroundImageFix" result="effect1_dropShadow_883_2348"/>
<feBlend mode="normal" in="SourceGraphic" in2="effect1_dropShadow_883_2348" result="shape"/>
</filter>
</defs>
</svg>
